<?xml version="1.0" ?><!-- Uploaded to: SVG Repo, www.svgrepo.com, Generator: SVG Repo Mixer Tools -->
<svg viewBox="0 0 60 60" xmlns="http://www.w3.org/2000/svg"><defs><style>
      .cls-1 {
        fill: #65727f;
        fill-rule: evenodd;
      }
    </style></defs><path class="cls-1" d="M940,810a30,30,0,1,1-30,30A30,30,0,0,1,940,810Zm15.986,38.742a1.209,1.209,0,0,1-.764,1.1,1.465,1.465,0,0,1-1.473-.082l-13.14-8.683a1.371,1.371,0,0,1,.009-2.311l13.176-8.55a1.454,1.454,0,0,1,1.47-.068,1.288,1.288,0,0,1,.755,1.165Zm-18,0a1.209,1.209,0,0,1-.764,1.1,1.465,1.465,0,0,1-1.473-.082l-13.14-8.683a1.371,1.371,0,0,1,.009-2.311l13.176-8.55a1.454,1.454,0,0,1,1.47-.068,1.288,1.288,0,0,1,.755,1.165Z" id="rewind" transform="translate(-910 -810)"/></svg>