<?xml version="1.0" ?><!-- Uploaded to: SVG Repo, www.svgrepo.com, Generator: SVG Repo Mixer Tools -->
<svg width="800px" height="800px" viewBox="-2 0 60 60" id="documents" xmlns="http://www.w3.org/2000/svg"><defs><style>
      .cls-1 {
        fill: #b5997a;
        fill-rule: evenodd;
      }
    </style></defs><path class="cls-1" d="M260,498a4,4,0,0,0-4,4v8H228a4,4,0,0,1-4-4V454a4,4,0,0,1,4-4h36a4,4,0,0,1,4,4v44h-8Zm0,12v-8h8Zm-24-44h20a2,2,0,0,1,0,4H236A2,2,0,0,1,236,466Zm0,10h20a2,2,0,0,1,0,4H236A2,2,0,0,1,236,476Zm0,10h20a2,2,0,0,1,0,4H236A2,2,0,0,1,236,486Z" data-name="documents" id="documents-2" transform="translate(-212 -450)"/><path class="cls-1" d="M220.01,454.035v52.23a7.96,7.96,0,0,0,.961,3.735H216a4,4,0,0,1-4-4V454a4,4,0,0,1,4-4h5.132A7.948,7.948,0,0,0,220.01,454.035Z" data-name="documents copy" id="documents_copy" transform="translate(-212 -450)"/></svg>